<svg version="1.1" id="Layer_1" xmlns="http://www.w3.org/2000/svg" xmlns:xlink="http://www.w3.org/1999/xlink" x="0px" y="0px"
	 width="100%" viewBox="0 0 1280 720" enable-background="new 0 0 1280 720" xml:space="preserve">
<path fill="#FFFFFF" opacity="1.000000" stroke="none" 
	d="
M1207.000000,721.000000 
	C804.716797,721.000000 402.933594,721.000000 1.075195,721.000000 
	C1.075195,481.080078 1.075195,241.160156 1.075195,1.120106 
	C427.666656,1.120106 854.333313,1.120106 1280.994873,1.120106 
	C1280.994873,241.066696 1280.994873,481.033356 1280.992310,721.000000 
	C1256.493164,721.000000 1231.996582,721.000000 1207.000000,721.000000 
M509.112732,318.905273 
	C506.877411,318.695831 504.463593,317.857300 502.449921,318.428833 
	C499.643341,319.225403 496.622284,320.599731 494.704926,322.665863 
	C493.655029,323.797150 493.920013,328.180756 494.940308,328.772278 
	C496.977081,329.953033 499.940521,329.565033 502.526642,329.749146 
	C503.231232,329.799316 504.020935,329.342438 504.659790,329.520142 
	C510.342072,331.100861 513.589478,329.810028 515.365234,325.153992 
	C516.989685,320.894592 514.818054,316.384644 509.854645,314.454987 
	C503.186127,311.862427 496.762054,312.556885 491.018219,316.956543 
	C486.927734,320.089752 485.825348,325.147400 487.966827,329.429565 
	C491.931854,337.358368 507.298218,339.106201 514.209839,331.345917 
	C511.690399,332.222961 510.246246,333.127625 508.782562,333.160400 
	C504.257507,333.261810 499.359314,334.093750 495.277802,332.689545 
	C488.512146,330.361816 487.981110,322.320343 493.670349,317.914246 
	C498.654694,314.054016 505.964081,314.208405 510.485504,318.591431 
	C510.317383,318.733978 510.149292,318.876495 509.112732,318.905273 
M1208.097656,405.342407 
	C1217.378662,393.296631 1225.954224,380.819153 1230.425293,366.074982 
	C1232.077026,360.628174 1233.075439,354.983185 1234.743164,347.836792 
	C1227.207764,349.592987 1221.190186,350.619812 1215.411743,352.415771 
	C1200.713501,356.983978 1188.176025,365.444031 1175.502808,374.724884 
	C1171.759277,374.684601 1166.988770,373.153900 1164.469360,374.890015 
	C1157.558228,379.652496 1151.592896,385.787689 1145.735840,390.953766 
	C1152.021851,393.536530 1158.079224,396.025391 1164.257568,399.312225 
	C1164.182983,400.927429 1164.108398,402.542664 1163.302002,404.254089 
	C1149.808838,408.319580 1142.377197,421.825012 1145.126465,438.465271 
	C1150.756592,437.519592 1156.445190,436.800293 1162.022217,435.574005 
	C1171.227295,433.550079 1176.780762,427.858429 1178.962524,418.190704 
	C1180.642822,418.147552 1182.322998,418.104401 1184.216309,418.728424 
	C1186.645264,424.701294 1189.074219,430.674133 1191.564209,436.797058 
	C1194.750977,433.165253 1197.664795,429.039062 1201.362305,425.810699 
	C1207.634155,420.334808 1209.547485,413.832336 1208.097656,405.342407 
M427.423553,384.888763 
	C422.129852,393.259949 416.836121,401.631104 411.311829,410.366913 
	C410.114166,408.635834 409.139130,407.324402 408.265442,405.948578 
	C400.247375,393.321991 392.281647,380.661804 384.191956,368.081329 
	C383.297302,366.690033 381.750061,364.767395 380.460358,364.731964 
	C370.372742,364.454651 360.274170,364.578400 350.287292,364.578400 
	C350.287292,386.400299 350.287292,407.623535 350.287292,428.688660 
	C359.350861,428.688660 368.087402,428.688660 377.319885,428.688660 
	C377.319885,415.414612 377.319885,402.450684 377.319885,388.521942 
	C382.923462,398.071869 387.938354,406.683441 393.021210,415.254730 
	C395.727234,419.817932 397.561005,426.062805 401.599030,428.344940 
	C405.653473,430.636322 411.968872,428.755432 417.270813,429.076385 
	C420.387482,429.265045 421.950317,428.070251 423.445587,425.435974 
	C429.595184,414.602203 435.997833,403.911926 442.331390,393.183014 
	C443.009674,392.033997 443.843658,390.976929 444.605438,389.877228 
	C444.920502,389.981354 445.235535,390.085510 445.550598,390.189667 
	C445.550598,403.068329 445.550598,415.946991 445.550598,428.866028 
	C454.701965,428.866028 463.338684,428.866028 472.204529,428.866028 
	C472.204529,407.499603 472.204529,386.270569 472.204529,364.579895 
	C462.014557,364.579895 452.064789,364.481110 442.122314,364.705261 
	C440.883423,364.733215 439.333771,366.239960 438.524872,367.457855 
	C434.848480,372.993042 431.385712,378.670166 427.423553,384.888763 
M180.815140,413.457397 
	C180.472794,411.097534 181.390762,410.215881 183.853180,410.307800 
	C188.844177,410.494232 193.858047,410.182556 198.840195,410.466827 
	C208.141006,410.997498 210.992004,413.454803 213.537064,422.422882 
	C213.943924,423.856628 214.150452,425.454285 214.950821,426.636963 
	C215.652390,427.673645 217.041565,428.872955 218.155212,428.901550 
	C225.792191,429.097717 233.436600,429.004486 241.461838,429.004486 
	C238.659042,420.593201 240.507812,410.374817 229.604431,406.626801 
	C230.181168,406.001251 230.444244,405.502411 230.853104,405.303925 
	C239.325317,401.190887 242.287491,394.071411 241.555618,385.170135 
	C240.769165,375.605286 234.916153,370.018005 226.056564,367.929016 
	C219.145981,366.299591 211.990738,365.088501 204.913361,364.909271 
	C187.992386,364.480652 171.053192,364.770844 154.022705,364.770844 
	C154.022705,386.321991 154.022705,407.553406 154.022705,428.692902 
	C163.035919,428.692902 171.785263,428.692902 180.814423,428.692902 
	C180.814423,423.747345 180.814423,419.108734 180.815140,413.457397 
M1031.668945,397.433929 
	C1030.907471,379.833191 1023.179871,369.813843 1006.341187,365.563660 
	C992.712708,362.123779 978.923828,362.138306 965.337830,365.936890 
	C949.474304,370.372314 941.014404,381.605835 941.280945,397.276550 
	C941.548523,413.006042 950.283508,423.914062 966.187866,427.991028 
	C978.818848,431.228882 991.645508,431.291260 1004.316101,428.591309 
	C1021.761047,424.874023 1029.718994,415.712891 1031.668945,397.433929 
M328.702087,372.766785 
	C325.863892,371.070068 323.204620,368.894165 320.157715,367.756470 
	C303.685974,361.605835 286.909210,361.520691 270.294922,366.835480 
	C255.838989,371.459869 248.791916,382.086365 248.918610,397.425201 
	C249.039780,412.093079 256.607483,422.624969 270.953033,427.082520 
	C285.924866,431.734680 301.207886,431.861633 316.164032,427.356018 
	C340.565460,420.004944 347.357391,391.252441 328.702087,372.766785 
M932.806091,407.065460 
	C936.947815,386.515137 929.852661,372.119232 912.025330,366.543121 
	C896.588867,361.714844 880.843628,361.703247 865.405945,366.756439 
	C850.962952,371.484100 843.824951,382.007111 843.918518,397.280548 
	C844.008606,411.985596 851.536438,422.621979 865.801697,427.034485 
	C881.267456,431.818298 896.947266,431.728668 912.423889,426.973358 
	C922.165955,423.980072 929.197937,417.751770 932.806091,407.065460 
M751.167725,364.571899 
	C750.366028,365.467896 748.870422,366.359406 748.864624,367.260559 
	C748.732178,387.723267 748.762756,408.186981 748.762756,428.610016 
	C757.956299,428.610016 766.820129,428.610016 776.118408,428.610016 
	C776.118408,422.315735 776.118408,416.411835 776.118408,410.354401 
	C781.221985,410.354401 785.880310,410.399811 790.537354,410.341614 
	C795.198303,410.283386 799.918823,410.552185 804.503723,409.903351 
	C811.208801,408.954437 818.022583,407.936798 824.413635,405.814728 
	C832.717468,403.057587 836.549988,396.395752 836.724976,387.721344 
	C836.903503,378.871185 832.899048,372.080627 824.383545,369.158081 
	C818.024536,366.975677 811.179749,365.397064 804.491089,365.144684 
	C787.030273,364.485748 769.536377,364.702820 751.167725,364.571899 
M673.498901,429.003296 
	C679.263977,429.003296 685.028992,429.003296 690.732849,429.003296 
	C690.732849,423.385437 690.732849,418.320892 690.732849,412.905365 
	C673.847778,412.905365 657.254578,412.905365 640.715698,412.905365 
	C640.715698,409.459900 640.715698,406.378082 640.715698,402.953979 
	C653.900208,402.953979 666.827759,402.953979 679.866516,402.953979 
	C679.866516,398.712921 679.866516,394.833160 679.866516,390.465912 
	C666.694214,390.465912 653.795166,390.465912 640.826782,390.465912 
	C640.826782,386.922882 640.826782,383.882965 640.826782,380.275970 
	C656.568726,380.275970 671.945801,380.275970 687.199463,380.275970 
	C687.199463,374.773926 687.199463,369.854248 687.199463,364.887817 
	C662.498840,364.887817 638.113403,364.887817 613.728455,364.887817 
	C613.728455,386.405579 613.728455,407.607544 613.728455,429.003296 
	C633.551636,429.003296 653.025574,429.003296 673.498901,429.003296 
M560.872803,387.961761 
	C558.357910,387.498077 555.843018,387.034393 553.037170,386.517090 
	C557.164124,380.213959 565.723389,378.779541 571.417297,382.792908 
	C572.589722,383.619293 573.841125,384.944000 575.078613,384.970062 
	C584.011658,385.157898 592.950500,385.070740 602.245300,385.070740 
	C600.222290,376.102081 595.201721,370.068542 587.249329,367.191040 
	C571.558716,361.513580 555.584595,361.520691 539.913391,367.259705 
	C536.200928,368.619263 532.612549,371.454315 530.007874,374.500549 
	C520.012207,386.190765 523.835022,398.417633 538.789490,401.920593 
	C546.668518,403.766235 554.914185,404.038818 562.990051,405.055206 
	C566.649963,405.515808 570.299683,406.057831 574.378296,406.621552 
	C570.142151,413.523621 561.686218,414.987061 555.596802,410.765564 
	C554.411133,409.943604 553.135193,408.654053 551.878967,408.627777 
	C542.985718,408.441772 534.086792,408.528809 524.812439,408.528809 
	C527.043274,417.344055 531.737183,423.382477 539.556335,426.276733 
	C555.406921,432.143768 571.557068,432.254150 587.314209,426.251007 
	C591.675354,424.589478 595.914856,420.893738 598.659790,417.029846 
	C606.555786,405.914856 603.018005,395.604187 589.821899,392.163177 
	C580.732666,389.793121 571.147766,389.323700 560.872803,387.961761 
M81.991501,417.497131 
	C81.991501,415.192017 81.991501,412.886902 81.991501,410.324799 
	C88.753433,410.324799 95.109123,410.736755 101.389801,410.226105 
	C110.304047,409.501282 119.356636,408.889252 127.995438,406.777893 
	C138.203949,404.282959 142.924667,397.255005 142.953369,387.579620 
	C142.982239,377.848785 138.189835,371.312012 128.210312,368.091003 
	C124.438538,366.873627 120.447960,365.683411 116.543427,365.637115 
	C96.105927,365.394897 75.664032,365.523956 55.257133,365.523956 
	C55.257133,386.307068 55.257133,407.549347 55.257133,428.713684 
	C64.295639,428.713684 73.035553,428.713684 81.991501,428.713684 
	C81.991501,425.114197 81.991501,421.803802 81.991501,417.497131 
M1117.768799,425.268158 
	C1117.768799,421.315948 1117.768799,417.363708 1117.768799,412.911072 
	C1101.375000,412.911072 1085.488892,412.911072 1069.301270,412.911072 
	C1069.301270,396.614929 1069.301270,380.836456 1069.301270,364.850830 
	C1060.257568,364.850830 1051.529907,364.850830 1042.686279,364.850830 
	C1042.686279,386.354950 1042.686279,407.574280 1042.686279,429.006012 
	C1066.980347,429.006012 1090.961548,429.037903 1114.941406,428.888062 
	C1115.889160,428.882111 1116.826172,427.144409 1117.768799,425.268158 
M502.494446,364.583923 
	C497.410889,364.583923 492.327332,364.583923 487.253235,364.583923 
	C487.253235,386.360626 487.253235,407.565552 487.253235,428.726196 
	C496.273468,428.726196 505.004364,428.726196 513.720093,428.726196 
	C513.720093,407.222351 513.720093,385.993408 513.720093,364.583923 
	C510.133667,364.583923 506.812958,364.583923 502.494446,364.583923 
M519.823730,332.388916 
	C520.245972,336.623962 521.484558,337.024139 529.442871,335.247040 
	C529.442871,331.369415 529.442871,327.389832 529.442871,322.341736 
	C531.332336,325.483521 532.632019,327.600708 533.889343,329.742859 
	C539.330872,339.014221 542.801514,338.965759 548.355774,329.555115 
	C549.625305,327.404236 550.981445,325.304504 552.297668,323.181213 
	C552.588867,323.305328 552.880005,323.429443 553.171143,323.553558 
	C553.171143,327.636414 553.171143,331.719269 553.171143,335.872223 
	C556.317383,335.872223 559.111938,335.872223 562.070740,335.872223 
	C562.070740,328.492249 562.070740,321.248016 562.070740,314.033508 
	C551.672363,312.817108 551.679993,312.821960 546.676392,320.710144 
	C544.936340,323.453400 543.148010,326.166077 541.028076,329.438538 
	C538.063293,324.765778 535.622559,320.458405 532.680908,316.525757 
	C531.612000,315.096802 529.439636,314.099335 527.605713,313.734680 
	C525.229675,313.262207 522.688660,313.619415 519.823669,313.619415 
	C519.823669,319.821106 519.823669,325.616302 519.823730,332.388916 
M762.815674,317.083191 
	C762.815674,323.325623 762.815674,329.568054 762.815674,336.378113 
	C771.806152,335.984406 780.268005,335.923798 788.642578,335.038086 
	C790.848511,334.804810 793.603638,332.385742 794.544434,330.274353 
	C795.129822,328.960480 792.782654,326.339996 792.012939,324.821381 
	C792.306885,322.380768 793.510437,319.542175 792.622559,317.726318 
	C791.754333,315.950775 788.820129,314.352631 786.675781,314.186310 
	C779.573914,313.635529 772.418457,313.680328 765.286011,313.750214 
	C764.454712,313.758331 763.638916,315.349548 762.815674,317.083191 
M699.620422,326.888245 
	C698.900269,320.830566 702.616272,317.882660 708.225342,319.592743 
	C712.003174,320.744537 716.020447,321.110870 719.930603,321.828583 
	C720.220703,321.186523 720.510803,320.544434 720.800964,319.902344 
	C718.776245,318.197845 716.965027,315.477600 714.682922,314.998016 
	C709.769287,313.965424 704.522583,313.325928 699.578552,313.916931 
	C692.645508,314.745758 689.595398,319.079010 689.869812,325.525299 
	C690.117981,331.355560 693.867310,335.578949 700.480469,335.945496 
	C707.156372,336.315491 713.890808,335.629944 720.503174,335.410095 
	C720.503174,331.972839 720.503174,328.553375 720.503174,325.042236 
	C716.238770,325.042236 712.285461,325.042236 707.598755,325.042236 
	C708.295166,326.935242 708.846558,328.434082 710.025757,331.639557 
	C705.900024,329.992035 702.922913,328.803192 699.620422,326.888245 
M680.585938,314.714996 
	C675.380981,314.427551 670.088745,313.419159 664.993286,314.036011 
	C658.687378,314.799408 655.761902,319.066650 655.856567,325.062469 
	C655.947510,330.820923 659.375305,334.976868 665.471558,335.868927 
	C669.036316,336.390594 672.758118,336.354126 676.356384,336.012238 
	C682.050781,335.471161 685.864685,332.196259 686.878601,327.641235 
	C688.054504,322.358826 686.368408,318.530762 680.585938,314.714996 
M735.091797,402.357819 
	C736.313660,402.203979 737.535522,402.050140 738.663452,401.908142 
	C738.663452,398.359680 738.663452,395.246338 738.663452,391.980988 
	C724.904602,391.980988 711.341492,391.980988 697.635254,391.980988 
	C697.635254,395.452087 697.635254,398.682495 697.635254,402.357819 
	C709.985657,402.357819 722.078857,402.357819 735.091797,402.357819 
M609.355652,320.067505 
	C610.920349,319.925903 612.510559,319.535370 614.044617,319.692566 
	C617.651306,320.062195 621.231079,320.693481 625.766235,321.357056 
	C624.814880,319.206512 624.578125,318.239471 624.031067,317.502960 
	C619.750916,311.740570 605.053711,311.407593 600.439941,316.928345 
	C596.880371,321.187653 598.487854,325.697327 604.165649,326.829407 
	C607.768860,327.547882 611.466003,327.795227 615.121033,328.253815 
	C615.094116,328.794891 615.067139,329.335938 615.040161,329.876984 
	C609.725281,329.524475 604.410339,329.171936 598.597961,328.786438 
	C602.597168,337.326996 618.843079,339.089233 623.904846,332.445679 
	C627.104431,328.246246 625.911133,324.431641 620.666626,323.034821 
	C616.888062,322.028351 612.966003,321.560547 609.355652,320.067505 
M737.585083,313.686737 
	C732.689941,320.907166 727.794861,328.127563 722.347839,336.162018 
	C727.242676,335.369720 730.709656,336.853394 734.701111,333.294769 
	C737.348938,330.934082 745.447876,330.910004 748.137146,333.251129 
	C752.260559,336.840637 755.602661,335.522949 760.041748,335.822021 
	C756.429932,330.174377 752.824707,325.347321 750.111450,320.062347 
	C747.496948,314.969604 744.098755,312.466431 737.585083,313.686737 
M571.392212,313.603333 
	C569.634766,313.603333 567.877380,313.603333 565.190735,313.603333 
	C571.526184,320.613037 580.736084,324.961365 576.869080,335.663269 
	C580.704712,335.663269 583.606689,335.663269 587.286377,335.663269 
	C583.103210,324.535828 592.766724,320.557007 598.019775,314.221741 
	C590.827087,311.909943 585.852661,314.684631 582.683044,319.340912 
	C578.795715,317.215210 575.493164,315.409302 571.392212,313.603333 
M646.795593,319.197693 
	C649.401367,319.197693 652.007080,319.197693 654.660034,319.197693 
	C654.660034,317.024506 654.660034,315.472778 654.660034,313.927002 
	C645.657166,313.927002 636.946655,313.927002 628.272217,313.927002 
	C628.272217,315.789886 628.272217,317.353119 628.272217,319.238281 
	C631.171875,319.238281 633.767578,319.238281 636.836853,319.238281 
	C636.836853,324.934387 636.836853,330.324982 636.836853,335.664673 
	C640.208618,335.664673 643.084534,335.664673 646.174744,335.664673 
	C646.174744,330.187622 646.174744,325.044922 646.795593,319.197693 
z"/>
<path fill="#020202" opacity="1.000000" stroke="none" 
	d="
M427.634827,384.592468 
	C431.385712,378.670166 434.848480,372.993042 438.524872,367.457855 
	C439.333771,366.239960 440.883423,364.733215 442.122314,364.705261 
	C452.064789,364.481110 462.014557,364.579895 472.204529,364.579895 
	C472.204529,386.270569 472.204529,407.499603 472.204529,428.866028 
	C463.338684,428.866028 454.701965,428.866028 445.550598,428.866028 
	C445.550598,415.946991 445.550598,403.068329 445.550598,390.189667 
	C445.235535,390.085510 444.920502,389.981354 444.605438,389.877228 
	C443.843658,390.976929 443.009674,392.033997 442.331390,393.183014 
	C435.997833,403.911926 429.595184,414.602203 423.445587,425.435974 
	C421.950317,428.070251 420.387482,429.265045 417.270813,429.076385 
	C411.968872,428.755432 405.653473,430.636322 401.599030,428.344940 
	C397.561005,426.062805 395.727234,419.817932 393.021210,415.254730 
	C387.938354,406.683441 382.923462,398.071869 377.319885,388.521942 
	C377.319885,402.450684 377.319885,415.414612 377.319885,428.688660 
	C368.087402,428.688660 359.350861,428.688660 350.287292,428.688660 
	C350.287292,407.623535 350.287292,386.400299 350.287292,364.578400 
	C360.274170,364.578400 370.372742,364.454651 380.460358,364.731964 
	C381.750061,364.767395 383.297302,366.690033 384.191956,368.081329 
	C392.281647,380.661804 400.247375,393.321991 408.265442,405.948578 
	C409.139130,407.324402 410.114166,408.635834 411.311829,410.366913 
	C416.836121,401.631104 422.129852,393.259949 427.634827,384.592468 
z"/>
<path fill="#030303" opacity="1.000000" stroke="none" 
	d="
M180.814789,413.963745 
	C180.814423,419.108734 180.814423,423.747345 180.814423,428.692902 
	C171.785263,428.692902 163.035919,428.692902 154.022705,428.692902 
	C154.022705,407.553406 154.022705,386.321991 154.022705,364.770844 
	C171.053192,364.770844 187.992386,364.480652 204.913361,364.909271 
	C211.990738,365.088501 219.145981,366.299591 226.056564,367.929016 
	C234.916153,370.018005 240.769165,375.605286 241.555618,385.170135 
	C242.287491,394.071411 239.325317,401.190887 230.853104,405.303925 
	C230.444244,405.502411 230.181168,406.001251 229.604431,406.626801 
	C240.507812,410.374817 238.659042,420.593201 241.461838,429.004486 
	C233.436600,429.004486 225.792191,429.097717 218.155212,428.901550 
	C217.041565,428.872955 215.652390,427.673645 214.950821,426.636963 
	C214.150452,425.454285 213.943924,423.856628 213.537064,422.422882 
	C210.992004,413.454803 208.141006,410.997498 198.840195,410.466827 
	C193.858047,410.182556 188.844177,410.494232 183.853180,410.307800 
	C181.390762,410.215881 180.472794,411.097534 180.814789,413.963745 
M190.503479,380.509674 
	C187.405441,380.509674 184.307404,380.509674 181.079315,380.509674 
	C181.079315,385.391113 181.079315,389.779846 181.079315,393.945099 
	C189.607254,393.945099 197.875641,394.213684 206.113312,393.827332 
	C210.001770,393.644958 214.643845,392.779938 214.540085,387.385071 
	C214.437500,382.052704 209.829544,381.502838 205.905090,381.096710 
	C201.134277,380.602966 196.304428,380.679657 190.503479,380.509674 
z"/>
<path fill="#030303" opacity="1.000000" stroke="none" 
	d="
M1031.641724,397.873901 
	C1029.718994,415.712891 1021.761047,424.874023 1004.316101,428.591309 
	C991.645508,431.291260 978.818848,431.228882 966.187866,427.991028 
	C950.283508,423.914062 941.548523,413.006042 941.280945,397.276550 
	C941.014404,381.605835 949.474304,370.372314 965.337830,365.936890 
	C978.923828,362.138306 992.712708,362.123779 1006.341187,365.563660 
	C1023.179871,369.813843 1030.907471,379.833191 1031.641724,397.873901 
M1002.194763,405.401337 
	C1005.723938,397.925140 1004.987854,390.593079 1000.195374,385.486328 
	C995.682800,380.677795 985.687012,379.045502 978.252258,381.885498 
	C973.194885,383.817383 970.135071,387.492889 968.944153,392.703491 
	C967.123779,400.668610 970.402649,408.089050 977.025085,411.216125 
	C985.718689,415.321167 996.171448,413.158936 1002.194763,405.401337 
z"/>
<path fill="#030303" opacity="1.000000" stroke="none" 
	d="
M328.990479,372.980591 
	C347.357391,391.252441 340.565460,420.004944 316.164032,427.356018 
	C301.207886,431.861633 285.924866,431.734680 270.953033,427.082520 
	C256.607483,422.624969 249.039780,412.093079 248.918610,397.425201 
	C248.791916,382.086365 255.838989,371.459869 270.294922,366.835480 
	C286.909210,361.520691 303.685974,361.605835 320.157715,367.756470 
	C323.204620,368.894165 325.863892,371.070068 328.990479,372.980591 
M275.950562,396.525757 
	C276.495453,407.456970 282.648193,413.059937 294.084381,413.039185 
	C304.770752,413.019775 311.538544,407.244965 311.977325,397.771545 
	C312.425842,388.087463 306.545959,381.600739 296.504028,380.701263 
	C284.406799,379.617767 277.394196,384.734619 275.950562,396.525757 
z"/>
<path fill="#030303" opacity="1.000000" stroke="none" 
	d="
M932.652954,407.439636 
	C929.197937,417.751770 922.165955,423.980072 912.423889,426.973358 
	C896.947266,431.728668 881.267456,431.818298 865.801697,427.034485 
	C851.536438,422.621979 844.008606,411.985596 843.918518,397.280548 
	C843.824951,382.007111 850.962952,371.484100 865.405945,366.756439 
	C880.843628,361.703247 896.588867,361.714844 912.025330,366.543121 
	C929.852661,372.119232 936.947815,386.515137 932.652954,407.439636 
M895.634705,381.266663 
	C891.835266,381.161133 887.985779,380.616058 884.246887,381.042023 
	C876.583984,381.915039 871.417542,387.829590 870.991699,395.493988 
	C870.352051,407.007050 877.970581,413.659760 891.047546,413.007233 
	C899.522278,412.584381 905.450256,407.616241 906.824646,399.784790 
	C908.232300,391.763519 904.273071,384.863739 895.634705,381.266663 
z"/>
<path fill="#030303" opacity="1.000000" stroke="none" 
	d="
M751.611694,364.571228 
	C769.536377,364.702820 787.030273,364.485748 804.491089,365.144684 
	C811.179749,365.397064 818.024536,366.975677 824.383545,369.158081 
	C832.899048,372.080627 836.903503,378.871185 836.724976,387.721344 
	C836.549988,396.395752 832.717468,403.057587 824.413635,405.814728 
	C818.022583,407.936798 811.208801,408.954437 804.503723,409.903351 
	C799.918823,410.552185 795.198303,410.283386 790.537354,410.341614 
	C785.880310,410.399811 781.221985,410.354401 776.118408,410.354401 
	C776.118408,416.411835 776.118408,422.315735 776.118408,428.610016 
	C766.820129,428.610016 757.956299,428.610016 748.762756,428.610016 
	C748.762756,408.186981 748.732178,387.723267 748.864624,367.260559 
	C748.870422,366.359406 750.366028,365.467896 751.611694,364.571228 
M781.496033,394.473602 
	C788.803894,394.188141 796.125732,394.087219 803.413330,393.534149 
	C806.719604,393.283264 809.553833,391.656097 809.642334,387.658142 
	C809.737061,383.383270 806.764587,381.531982 803.280762,381.409271 
	C794.237244,381.090729 785.175049,381.302246 776.156738,381.302246 
	C776.156738,385.557495 776.156738,389.954041 776.156738,394.477234 
	C777.832886,394.477234 779.161377,394.477234 781.496033,394.473602 
z"/>
<path fill="#020202" opacity="1.000000" stroke="none" 
	d="
M672.999146,429.003296 
	C653.025574,429.003296 633.551636,429.003296 613.728455,429.003296 
	C613.728455,407.607544 613.728455,386.405579 613.728455,364.887817 
	C638.113403,364.887817 662.498840,364.887817 687.199463,364.887817 
	C687.199463,369.854248 687.199463,374.773926 687.199463,380.275970 
	C671.945801,380.275970 656.568726,380.275970 640.826782,380.275970 
	C640.826782,383.882965 640.826782,386.922882 640.826782,390.465912 
	C653.795166,390.465912 666.694214,390.465912 679.866516,390.465912 
	C679.866516,394.833160 679.866516,398.712921 679.866516,402.953979 
	C666.827759,402.953979 653.900208,402.953979 640.715698,402.953979 
	C640.715698,406.378082 640.715698,409.459900 640.715698,412.905365 
	C657.254578,412.905365 673.847778,412.905365 690.732849,412.905365 
	C690.732849,418.320892 690.732849,423.385437 690.732849,429.003296 
	C685.028992,429.003296 679.263977,429.003296 672.999146,429.003296 
z"/>
<path fill="#030303" opacity="1.000000" stroke="none" 
	d="
M561.328613,387.983276 
	C571.147766,389.323700 580.732666,389.793121 589.821899,392.163177 
	C603.018005,395.604187 606.555786,405.914856 598.659790,417.029846 
	C595.914856,420.893738 591.675354,424.589478 587.314209,426.251007 
	C571.557068,432.254150 555.406921,432.143768 539.556335,426.276733 
	C531.737183,423.382477 527.043274,417.344055 524.812439,408.528809 
	C534.086792,408.528809 542.985718,408.441772 551.878967,408.627777 
	C553.135193,408.654053 554.411133,409.943604 555.596802,410.765564 
	C561.686218,414.987061 570.142151,413.523621 574.378296,406.621552 
	C570.299683,406.057831 566.649963,405.515808 562.990051,405.055206 
	C554.914185,404.038818 546.668518,403.766235 538.789490,401.920593 
	C523.835022,398.417633 520.012207,386.190765 530.007874,374.500549 
	C532.612549,371.454315 536.200928,368.619263 539.913391,367.259705 
	C555.584595,361.520691 571.558716,361.513580 587.249329,367.191040 
	C595.201721,370.068542 600.222290,376.102081 602.245300,385.070740 
	C592.950500,385.070740 584.011658,385.157898 575.078613,384.970062 
	C573.841125,384.944000 572.589722,383.619293 571.417297,382.792908 
	C565.723389,378.779541 557.164124,380.213959 553.037170,386.517090 
	C555.843018,387.034393 558.357910,387.498077 561.328613,387.983276 
z"/>
<path fill="#030303" opacity="1.000000" stroke="none" 
	d="
M81.991501,417.995270 
	C81.991501,421.803802 81.991501,425.114197 81.991501,428.713684 
	C73.035553,428.713684 64.295639,428.713684 55.257133,428.713684 
	C55.257133,407.549347 55.257133,386.307068 55.257133,365.523956 
	C75.664032,365.523956 96.105927,365.394897 116.543427,365.637115 
	C120.447960,365.683411 124.438538,366.873627 128.210312,368.091003 
	C138.189835,371.312012 142.982239,377.848785 142.953369,387.579620 
	C142.924667,397.255005 138.203949,404.282959 127.995438,406.777893 
	C119.356636,408.889252 110.304047,409.501282 101.389801,410.226105 
	C95.109123,410.736755 88.753433,410.324799 81.991501,410.324799 
	C81.991501,412.886902 81.991501,415.192017 81.991501,417.995270 
M82.520645,394.338531 
	C91.474380,394.125122 100.439949,394.114838 109.375809,393.594391 
	C112.763382,393.397095 115.905632,391.825836 115.913399,387.487823 
	C115.921173,383.147827 112.776329,381.507019 109.397484,381.380249 
	C100.371422,381.041748 91.324287,381.264984 82.030396,381.264984 
	C82.030396,385.206024 82.030396,389.336945 82.520645,394.338531 
z"/>
<path fill="#040404" opacity="1.000000" stroke="none" 
	d="
M1117.768555,425.740906 
	C1116.826172,427.144409 1115.889160,428.882111 1114.941406,428.888062 
	C1090.961548,429.037903 1066.980347,429.006012 1042.686279,429.006012 
	C1042.686279,407.574280 1042.686279,386.354950 1042.686279,364.850830 
	C1051.529907,364.850830 1060.257568,364.850830 1069.301270,364.850830 
	C1069.301270,380.836456 1069.301270,396.614929 1069.301270,412.911072 
	C1085.488892,412.911072 1101.375000,412.911072 1117.768799,412.911072 
	C1117.768799,417.363708 1117.768799,421.315948 1117.768555,425.740906 
z"/>
<path fill="#57ABEC" opacity="1.000000" stroke="none" 
	d="
M1164.033691,404.157867 
	C1164.108398,402.542664 1164.182983,400.927429 1164.481323,398.643463 
	C1166.551147,389.291718 1170.125122,381.479614 1176.296021,374.976349 
	C1188.176025,365.444031 1200.713501,356.983978 1215.411743,352.415771 
	C1221.190186,350.619812 1227.207764,349.592987 1234.743164,347.836792 
	C1233.075439,354.983185 1232.077026,360.628174 1230.425293,366.074982 
	C1225.954224,380.819153 1217.378662,393.296631 1207.657471,405.817993 
	C1200.766235,412.754913 1192.655884,415.942841 1184.003296,418.061218 
	C1182.322998,418.104401 1180.642822,418.147552 1178.177124,418.181213 
	C1176.632080,418.058990 1175.872437,417.946228 1175.256470,417.548279 
	C1184.427612,406.034546 1194.457520,395.514801 1200.438354,381.946259 
	C1186.927368,388.194824 1176.089722,397.938538 1164.760986,406.850250 
	C1164.446533,405.758423 1164.240112,404.958160 1164.033691,404.157867 
M1205.787720,366.670044 
	C1213.391235,367.544464 1215.541382,370.213226 1216.183350,379.822174 
	C1220.387817,377.313843 1221.791260,373.637695 1220.859131,369.216492 
	C1219.963623,364.969330 1217.229370,362.039948 1212.808960,361.408234 
	C1208.364014,360.773010 1204.855957,362.505554 1202.102417,366.884918 
	C1203.472534,366.814209 1204.242065,366.774536 1205.787720,366.670044 
z"/>
<path fill="#000000" opacity="1.000000" stroke="none" 
	d="
M502.993347,364.583923 
	C506.812958,364.583923 510.133667,364.583923 513.720093,364.583923 
	C513.720093,385.993408 513.720093,407.222351 513.720093,428.726196 
	C505.004364,428.726196 496.273468,428.726196 487.253235,428.726196 
	C487.253235,407.565552 487.253235,386.360626 487.253235,364.583923 
	C492.327332,364.583923 497.410889,364.583923 502.993347,364.583923 
z"/>
<path fill="#040404" opacity="1.000000" stroke="none" 
	d="
M519.823730,331.900208 
	C519.823669,325.616302 519.823669,319.821106 519.823669,313.619415 
	C522.688660,313.619415 525.229675,313.262207 527.605713,313.734680 
	C529.439636,314.099335 531.612000,315.096802 532.680908,316.525757 
	C535.622559,320.458405 538.063293,324.765778 541.028076,329.438538 
	C543.148010,326.166077 544.936340,323.453400 546.676392,320.710144 
	C551.679993,312.821960 551.672363,312.817108 562.070740,314.033508 
	C562.070740,321.248016 562.070740,328.492249 562.070740,335.872223 
	C559.111938,335.872223 556.317383,335.872223 553.171143,335.872223 
	C553.171143,331.719269 553.171143,327.636414 553.171143,323.553558 
	C552.880005,323.429443 552.588867,323.305328 552.297668,323.181213 
	C550.981445,325.304504 549.625305,327.404236 548.355774,329.555115 
	C542.801514,338.965759 539.330872,339.014221 533.889343,329.742859 
	C532.632019,327.600708 531.332336,325.483521 529.442871,322.341736 
	C529.442871,327.389832 529.442871,331.369415 529.442871,335.247040 
	C521.484558,337.024139 520.245972,336.623962 519.823730,331.900208 
z"/>
<path fill="#060606" opacity="1.000000" stroke="none" 
	d="
M762.815796,316.645020 
	C763.638916,315.349548 764.454712,313.758331 765.286011,313.750214 
	C772.418457,313.680328 779.573914,313.635529 786.675781,314.186310 
	C788.820129,314.352631 791.754333,315.950775 792.622559,317.726318 
	C793.510437,319.542175 792.306885,322.380768 792.012939,324.821381 
	C792.782654,326.339996 795.129822,328.960480 794.544434,330.274353 
	C793.603638,332.385742 790.848511,334.804810 788.642578,335.038086 
	C780.268005,335.923798 771.806152,335.984406 762.815674,336.378113 
	C762.815674,329.568054 762.815674,323.325623 762.815796,316.645020 
M782.638000,319.874146 
	C779.265198,319.528809 775.892456,319.183502 771.089661,318.691742 
	C772.422241,320.891510 773.192871,322.814087 773.604553,322.740082 
	C776.822998,322.161438 780.911316,325.053955 782.638000,319.874146 
M777.497375,326.817780 
	C776.184998,326.832306 774.844360,326.694916 773.573303,326.931396 
	C773.015930,327.035126 772.125854,328.021820 772.220764,328.396179 
	C772.409302,329.139801 773.171814,330.299438 773.704285,330.303253 
	C777.152222,330.328217 780.601990,330.088135 784.051208,329.934937 
	C784.114624,329.190765 784.177979,328.446594 784.241394,327.702423 
	C782.303955,327.408203 780.366577,327.113983 777.497375,326.817780 
z"/>
<path fill="#080808" opacity="1.000000" stroke="none" 
	d="
M699.783142,327.251282 
	C702.922913,328.803192 705.900024,329.992035 710.025757,331.639557 
	C708.846558,328.434082 708.295166,326.935242 707.598755,325.042236 
	C712.285461,325.042236 716.238770,325.042236 720.503174,325.042236 
	C720.503174,328.553375 720.503174,331.972839 720.503174,335.410095 
	C713.890808,335.629944 707.156372,336.315491 700.480469,335.945496 
	C693.867310,335.578949 690.117981,331.355560 689.869812,325.525299 
	C689.595398,319.079010 692.645508,314.745758 699.578552,313.916931 
	C704.522583,313.325928 709.769287,313.965424 714.682922,314.998016 
	C716.965027,315.477600 718.776245,318.197845 720.800964,319.902344 
	C720.510803,320.544434 720.220703,321.186523 719.930603,321.828583 
	C716.020447,321.110870 712.003174,320.744537 708.225342,319.592743 
	C702.616272,317.882660 698.900269,320.830566 699.783142,327.251282 
z"/>
<path fill="#080808" opacity="1.000000" stroke="none" 
	d="
M680.947083,314.854431 
	C686.368408,318.530762 688.054504,322.358826 686.878601,327.641235 
	C685.864685,332.196259 682.050781,335.471161 676.356384,336.012238 
	C672.758118,336.354126 669.036316,336.390594 665.471558,335.868927 
	C659.375305,334.976868 655.947510,330.820923 655.856567,325.062469 
	C655.761902,319.066650 658.687378,314.799408 664.993286,314.036011 
	C670.088745,313.419159 675.380981,314.427551 680.947083,314.854431 
M671.482117,319.104523 
	C667.625549,319.300568 665.060791,321.090363 665.221619,325.162201 
	C665.349915,328.409210 667.486206,330.136871 670.766846,330.321228 
	C674.068115,330.506775 676.856567,329.565247 677.526550,325.993622 
	C678.275574,322.000885 676.149292,319.789337 671.482117,319.104523 
z"/>
<path fill="#040404" opacity="1.000000" stroke="none" 
	d="
M734.631958,402.357819 
	C722.078857,402.357819 709.985657,402.357819 697.635254,402.357819 
	C697.635254,398.682495 697.635254,395.452087 697.635254,391.980988 
	C711.341492,391.980988 724.904602,391.980988 738.663452,391.980988 
	C738.663452,395.246338 738.663452,398.359680 738.663452,401.908142 
	C737.535522,402.050140 736.313660,402.203979 734.631958,402.357819 
z"/>
<path fill="#080808" opacity="1.000000" stroke="none" 
	d="
M609.231812,320.459991 
	C612.966003,321.560547 616.888062,322.028351 620.666626,323.034821 
	C625.911133,324.431641 627.104431,328.246246 623.904846,332.445679 
	C618.843079,339.089233 602.597168,337.326996 598.597961,328.786438 
	C604.410339,329.171936 609.725281,329.524475 615.040161,329.876984 
	C615.067139,329.335938 615.094116,328.794891 615.121033,328.253815 
	C611.466003,327.795227 607.768860,327.547882 604.165649,326.829407 
	C598.487854,325.697327 596.880371,321.187653 600.439941,316.928345 
	C605.053711,311.407593 619.750916,311.740570 624.031067,317.502960 
	C624.578125,318.239471 624.814880,319.206512 625.766235,321.357056 
	C621.231079,320.693481 617.651306,320.062195 614.044617,319.692566 
	C612.510559,319.535370 610.920349,319.925903 609.231812,320.459991 
z"/>
<path fill="#FFAE38" opacity="1.000000" stroke="none" 
	d="
M1163.667969,404.205994 
	C1164.240112,404.958160 1164.446533,405.758423 1164.698608,407.043152 
	C1164.603394,407.779236 1164.394287,407.944824 1163.724609,408.014282 
	C1157.906006,408.864471 1154.647827,412.903595 1155.005005,418.327240 
	C1155.319336,423.097839 1159.466919,427.197021 1164.401611,427.613922 
	C1169.630981,428.055756 1173.905029,424.194824 1174.976562,417.984436 
	C1174.977295,417.907288 1175.112793,417.833466 1175.112793,417.833466 
	C1175.872437,417.946228 1176.632080,418.058990 1177.766602,418.267883 
	C1176.780762,427.858429 1171.227295,433.550079 1162.022217,435.574005 
	C1156.445190,436.800293 1150.756592,437.519592 1145.126465,438.465271 
	C1142.377197,421.825012 1149.808838,408.319580 1163.667969,404.205994 
z"/>
<path fill="#060606" opacity="1.000000" stroke="none" 
	d="
M737.974365,313.664246 
	C744.098755,312.466431 747.496948,314.969604 750.111450,320.062347 
	C752.824707,325.347321 756.429932,330.174377 760.041748,335.822021 
	C755.602661,335.522949 752.260559,336.840637 748.137146,333.251129 
	C745.447876,330.910004 737.348938,330.934082 734.701111,333.294769 
	C730.709656,336.853394 727.242676,335.369720 722.347839,336.162018 
	C727.794861,328.127563 732.689941,320.907166 737.974365,313.664246 
M738.195007,325.950378 
	C740.320679,326.325378 742.446289,326.700378 745.572876,327.251953 
	C743.833252,324.258911 742.742371,322.381958 741.461243,320.177795 
	C740.278015,322.151001 739.353088,323.693390 738.195007,325.950378 
z"/>
<path fill="#1A1A1A" opacity="1.000000" stroke="none" 
	d="
M511.069702,318.281738 
	C505.964081,314.208405 498.654694,314.054016 493.670349,317.914246 
	C487.981110,322.320343 488.512146,330.361816 495.277802,332.689545 
	C499.359314,334.093750 504.257507,333.261810 508.782562,333.160400 
	C510.246246,333.127625 511.690399,332.222961 514.209839,331.345917 
	C507.298218,339.106201 491.931854,337.358368 487.966827,329.429565 
	C485.825348,325.147400 486.927734,320.089752 491.018219,316.956543 
	C496.762054,312.556885 503.186127,311.862427 509.854645,314.454987 
	C514.818054,316.384644 516.989685,320.894592 515.365234,325.153992 
	C513.589478,329.810028 510.342072,331.100861 504.659790,329.520142 
	C504.020935,329.342438 503.231232,329.799316 502.526642,329.749146 
	C499.940521,329.565033 496.977081,329.953033 494.940308,328.772278 
	C493.920013,328.180756 493.655029,323.797150 494.704926,322.665863 
	C496.622284,320.599731 499.643341,319.225403 502.449921,318.428833 
	C504.463593,317.857300 506.877411,318.695831 509.545105,319.354828 
	C509.133881,322.375977 508.290283,324.947571 507.356995,327.792664 
	C513.149231,326.963562 514.348938,323.231018 511.069702,318.281738 
M499.516022,327.904541 
	C504.268951,327.579193 503.742798,324.316833 503.869080,320.868134 
	C499.430389,321.451050 498.742828,324.012329 499.516022,327.904541 
z"/>
<path fill="#A10A23" opacity="1.000000" stroke="none" 
	d="
M1175.899414,374.850616 
	C1170.125122,381.479614 1166.551147,389.291718 1164.420898,398.244507 
	C1158.079224,396.025391 1152.021851,393.536530 1145.735840,390.953766 
	C1151.592896,385.787689 1157.558228,379.652496 1164.469360,374.890015 
	C1166.988770,373.153900 1171.759277,374.684601 1175.899414,374.850616 
z"/>
<path fill="#A10A23" opacity="1.000000" stroke="none" 
	d="
M1184.109863,418.394836 
	C1192.655884,415.942841 1200.766235,412.754913 1207.494995,406.121582 
	C1209.547485,413.832336 1207.634155,420.334808 1201.362305,425.810699 
	C1197.664795,429.039062 1194.750977,433.165253 1191.564209,436.797058 
	C1189.074219,430.674133 1186.645264,424.701294 1184.109863,418.394836 
z"/>
<path fill="#080808" opacity="1.000000" stroke="none" 
	d="
M571.791443,313.603394 
	C575.493164,315.409302 578.795715,317.215210 582.683044,319.340912 
	C585.852661,314.684631 590.827087,311.909943 598.019775,314.221741 
	C592.766724,320.557007 583.103210,324.535828 587.286377,335.663269 
	C583.606689,335.663269 580.704712,335.663269 576.869080,335.663269 
	C580.736084,324.961365 571.526184,320.613037 565.190735,313.603333 
	C567.877380,313.603333 569.634766,313.603333 571.791443,313.603394 
z"/>
<path fill="#000000" opacity="1.000000" stroke="none" 
	d="
M646.485168,319.549927 
	C646.174744,325.044922 646.174744,330.187622 646.174744,335.664673 
	C643.084534,335.664673 640.208618,335.664673 636.836853,335.664673 
	C636.836853,330.324982 636.836853,324.934387 636.836853,319.238281 
	C633.767578,319.238281 631.171875,319.238281 628.272217,319.238281 
	C628.272217,317.353119 628.272217,315.789886 628.272217,313.927002 
	C636.946655,313.927002 645.657166,313.927002 654.660034,313.927002 
	C654.660034,315.472778 654.660034,317.024506 654.660034,319.197693 
	C652.007080,319.197693 649.401367,319.197693 646.485168,319.549927 
z"/>
<path fill="#FDFDFD" opacity="1.000000" stroke="none" 
	d="
M191.001801,380.509644 
	C196.304428,380.679657 201.134277,380.602966 205.905090,381.096710 
	C209.829544,381.502838 214.437500,382.052704 214.540085,387.385071 
	C214.643845,392.779938 210.001770,393.644958 206.113312,393.827332 
	C197.875641,394.213684 189.607254,393.945099 181.079315,393.945099 
	C181.079315,389.779846 181.079315,385.391113 181.079315,380.509674 
	C184.307404,380.509674 187.405441,380.509674 191.001801,380.509644 
z"/>
<path fill="#FCFCFC" opacity="1.000000" stroke="none" 
	d="
M1002.014404,405.742767 
	C996.171448,413.158936 985.718689,415.321167 977.025085,411.216125 
	C970.402649,408.089050 967.123779,400.668610 968.944153,392.703491 
	C970.135071,387.492889 973.194885,383.817383 978.252258,381.885498 
	C985.687012,379.045502 995.682800,380.677795 1000.195374,385.486328 
	C1004.987854,390.593079 1005.723938,397.925140 1002.014404,405.742767 
z"/>
<path fill="#FCFCFC" opacity="1.000000" stroke="none" 
	d="
M275.967743,396.099548 
	C277.394196,384.734619 284.406799,379.617767 296.504028,380.701263 
	C306.545959,381.600739 312.425842,388.087463 311.977325,397.771545 
	C311.538544,407.244965 304.770752,413.019775 294.084381,413.039185 
	C282.648193,413.059937 276.495453,407.456970 275.967743,396.099548 
z"/>
<path fill="#FCFCFC" opacity="1.000000" stroke="none" 
	d="
M896.014954,381.438049 
	C904.273071,384.863739 908.232300,391.763519 906.824646,399.784790 
	C905.450256,407.616241 899.522278,412.584381 891.047546,413.007233 
	C877.970581,413.659760 870.352051,407.007050 870.991699,395.493988 
	C871.417542,387.829590 876.583984,381.915039 884.246887,381.042023 
	C887.985779,380.616058 891.835266,381.161133 896.014954,381.438049 
z"/>
<path fill="#FDFDFD" opacity="1.000000" stroke="none" 
	d="
M780.992920,394.475403 
	C779.161377,394.477234 777.832886,394.477234 776.156738,394.477234 
	C776.156738,389.954041 776.156738,385.557495 776.156738,381.302246 
	C785.175049,381.302246 794.237244,381.090729 803.280762,381.409271 
	C806.764587,381.531982 809.737061,383.383270 809.642334,387.658142 
	C809.553833,391.656097 806.719604,393.283264 803.413330,393.534149 
	C796.125732,394.087219 788.803894,394.188141 780.992920,394.475403 
z"/>
<path fill="#FDFDFD" opacity="1.000000" stroke="none" 
	d="
M82.275520,393.903198 
	C82.030396,389.336945 82.030396,385.206024 82.030396,381.264984 
	C91.324287,381.264984 100.371422,381.041748 109.397484,381.380249 
	C112.776329,381.507019 115.921173,383.147827 115.913399,387.487823 
	C115.905632,391.825836 112.763382,393.397095 109.375809,393.594391 
	C100.439949,394.114838 91.474380,394.125122 82.275520,393.903198 
z"/>
<path fill="#A10A23" opacity="1.000000" stroke="none" 
	d="
M1164.117065,408.024384 
	C1164.394287,407.944824 1164.603394,407.779236 1164.806641,407.334717 
	C1176.089722,397.938538 1186.927368,388.194824 1200.438354,381.946259 
	C1194.457520,395.514801 1184.427612,406.034546 1175.256470,417.548279 
	C1175.112793,417.833466 1174.977295,417.907288 1174.589844,418.030212 
	C1170.501587,418.877594 1166.800659,419.602051 1162.086914,420.524719 
	C1162.919922,415.396149 1163.518433,411.710266 1164.117065,408.024384 
z"/>
<path fill="#080808" opacity="1.000000" stroke="none" 
	d="
M1205.399658,366.702454 
	C1204.242065,366.774536 1203.472534,366.814209 1202.102417,366.884918 
	C1204.855957,362.505554 1208.364014,360.773010 1212.808960,361.408234 
	C1217.229370,362.039948 1219.963623,364.969330 1220.859131,369.216492 
	C1221.791260,373.637695 1220.387817,377.313843 1216.183350,379.822174 
	C1215.541382,370.213226 1213.391235,367.544464 1205.399658,366.702454 
z"/>
<path fill="#FCFCFC" opacity="1.000000" stroke="none" 
	d="
M782.915222,320.216003 
	C780.911316,325.053955 776.822998,322.161438 773.604553,322.740082 
	C773.192871,322.814087 772.422241,320.891510 771.089661,318.691742 
	C775.892456,319.183502 779.265198,319.528809 782.915222,320.216003 
z"/>
<path fill="#FCFCFC" opacity="1.000000" stroke="none" 
	d="
M777.963257,326.818787 
	C780.366577,327.113983 782.303955,327.408203 784.241394,327.702423 
	C784.177979,328.446594 784.114624,329.190765 784.051208,329.934937 
	C780.601990,330.088135 777.152222,330.328217 773.704285,330.303253 
	C773.171814,330.299438 772.409302,329.139801 772.220764,328.396179 
	C772.125854,328.021820 773.015930,327.035126 773.573303,326.931396 
	C774.844360,326.694916 776.184998,326.832306 777.963257,326.818787 
z"/>
<path fill="#FCFCFC" opacity="1.000000" stroke="none" 
	d="
M671.871460,319.122803 
	C676.149292,319.789337 678.275574,322.000885 677.526550,325.993622 
	C676.856567,329.565247 674.068115,330.506775 670.766846,330.321228 
	C667.486206,330.136871 665.349915,328.409210 665.221619,325.162201 
	C665.060791,321.090363 667.625549,319.300568 671.871460,319.122803 
z"/>
<path fill="#FDC84C" opacity="1.000000" stroke="none" 
	d="
M1163.724609,408.014282 
	C1163.518433,411.710266 1162.919922,415.396149 1162.086914,420.524719 
	C1166.800659,419.602051 1170.501587,418.877594 1174.589233,418.107391 
	C1173.905029,424.194824 1169.630981,428.055756 1164.401611,427.613922 
	C1159.466919,427.197021 1155.319336,423.097839 1155.005005,418.327240 
	C1154.647827,412.903595 1157.906006,408.864471 1163.724609,408.014282 
z"/>
<path fill="#FCFCFC" opacity="1.000000" stroke="none" 
	d="
M738.311646,325.593079 
	C739.353088,323.693390 740.278015,322.151001 741.461243,320.177795 
	C742.742371,322.381958 743.833252,324.258911 745.572876,327.251953 
	C742.446289,326.700378 740.320679,326.325378 738.311646,325.593079 
z"/>
<path fill="#FFFFFF" opacity="1.000000" stroke="none" 
	d="
M510.777588,318.436584 
	C514.348938,323.231018 513.149231,326.963562 507.356995,327.792664 
	C508.290283,324.947571 509.133881,322.375977 509.979309,319.411713 
	C510.149292,318.876495 510.317383,318.733978 510.777588,318.436584 
z"/>
<path fill="#FCFCFC" opacity="1.000000" stroke="none" 
	d="
M499.272461,327.577271 
	C498.742828,324.012329 499.430389,321.451050 503.869080,320.868134 
	C503.742798,324.316833 504.268951,327.579193 499.272461,327.577271 
z"/>
</svg>